# xmcd
# 
# Track frame offsets:
#     150
#     3015
#     15635
#     30491
#     47181
#     53106
#     73301
#     94315
#     118259
#     121716
#     144666
#     160334
#     169297
#     185687
#     200933
#     215727
# 
# Disc length: 3085
# 
# Revision: 0
# Processed by: cddbd v1.5.2PL0 Copyright (c) Steve Scherf et al.
# Submitted via: fre:ac v1.0.31
# 
DISCID=f00c0b10
DTITLE=Edward II - Manchester's Improving Daily
DYEAR=2016
DGENRE=Folk
TTITLE0=Patience Kershaw (excerpt Jennifer Reid)
TTITLE1=Manchester's Improving Daily
TTITLE2=Ragbag
TTITLE3=Dirty Old Town
TTITLE4=A Sprig of Time (excerpt Jennifer Reid)
TTITLE5=Soldier's Farewell to Manchester
TTITLE6=Love Vigilantes
TTITLE7=The Great Flood
TTITLE8=Jone O Grinfield (excerpt Jennifer Reid
TTITLE9=Peterloo
TTITLE10=A New Song on the Great Demonstration which is to be made on Kersal Moor, September 24th 1838
TTITLE11=Victoria Bridge on a Saturday Night (Jennifer Reid)
TTITLE12=Victoria Bridge on a Saturday Night
TTITLE13=Mr Sadler's Balloon
TTITLE14=A Humorous and Interesting Dialogue
TTITLE15=The Execution of Allen, Gould and Larkin
EXTD=
EXTT0=
EXTT1=
EXTT2=
EXTT3=
EXTT4=
EXTT5=
EXTT6=
EXTT7=
EXTT8=
EXTT9=
EXTT10=
EXTT11=
EXTT12=
EXTT13=
EXTT14=
EXTT15=
PLAYORDER=
